<svg width="270" height="80" viewBox="0 0 270 80" fill="none" xmlns="http://www.w3.org/2000/svg">
<g clip-path="url(#clip0_198_347)">
<path d="M200.331 79.2949H139.085V0.355469H200.331V79.2949ZM139.086 43.9082V61.6016H163.584V43.9082H139.086ZM163.685 43.9082H181.378V26.2148H163.685V43.9082Z" fill="#0055D4"/>
<path d="M130.919 79.2949H69.6729V0.355469H130.919V79.2949ZM87.3662 18.0488V61.6016H111.864V18.0488H87.3662Z" fill="#0055D4"/>
<path d="M269.744 79.2949H209.858V0.355469H269.744V79.2949ZM227.553 18.0488V61.6016H252.051V18.0488H227.553Z" fill="#0055D4"/>
<path d="M60.1455 79.2949H0.259766V0.355469H60.1455V79.2949ZM17.9541 43.9082V61.6016H42.4521V43.9082H17.9541ZM17.9541 35.7422H42.4521V18.0488H17.9541V35.7422Z" fill="#0055D4"/>
</g>
<defs>
<clipPath id="clip0_198_347">
<rect width="270" height="80" fill="white"/>
</clipPath>
</defs>
</svg>
